<svg width="1440" height="1024" viewBox="0 0 1440 1024" fill="none" xmlns="http://www.w3.org/2000/svg">
<g filter="url(#filter0_d_26_4)">
<g clip-path="url(#clip0_26_4)">
<mask id="mask0_26_4" style="mask-type:luminance" maskUnits="userSpaceOnUse" x="563" y="554" width="859" height="611">
<path d="M1422 554H563V1165H1422V554Z" fill="white"/>
</mask>
<g mask="url(#mask0_26_4)">
<path d="M981.053 923.715L974.676 919.502L977.384 912.354L971.013 908.141L973.721 900.999L967.35 896.787L970.059 889.638M985.592 922.247L979.215 918.034L981.93 910.892L975.553 906.679L978.267 899.531L971.89 895.319L974.604 888.176" stroke="#E8E8E8" stroke-opacity="0.5" stroke-width="1.23" stroke-dasharray="3 3"/>
<path d="M882.017 716.75C881.786 716.377 881.485 716.053 881.129 715.796C880.773 715.539 880.37 715.355 879.942 715.255C879.515 715.154 879.073 715.138 878.639 715.208C878.206 715.279 877.791 715.434 877.418 715.664C877.045 715.895 876.721 716.197 876.464 716.553C876.207 716.909 876.023 717.312 875.923 717.74C875.822 718.167 875.806 718.61 875.876 719.043C875.947 719.476 876.102 719.891 876.332 720.265C876.563 720.638 876.865 720.962 877.221 721.219C877.577 721.476 877.98 721.66 878.407 721.761C878.834 721.861 879.277 721.877 879.71 721.807C880.143 721.736 880.558 721.582 880.931 721.351C881.305 721.12 881.629 720.818 881.886 720.462C882.142 720.106 882.326 719.703 882.427 719.275C882.528 718.848 882.543 718.405 882.473 717.972C882.403 717.539 882.248 717.124 882.017 716.75ZM873.898 721.768C873.668 721.395 873.366 721.071 873.01 720.814C872.654 720.557 872.251 720.374 871.824 720.273C871.397 720.172 870.954 720.156 870.521 720.226C870.088 720.297 869.672 720.452 869.299 720.682C868.926 720.913 868.602 721.215 868.345 721.571C868.089 721.927 867.905 722.331 867.804 722.758C867.703 723.185 867.687 723.628 867.758 724.061C867.828 724.494 867.983 724.909 868.214 725.283C868.679 726.037 869.426 726.575 870.288 726.779C871.151 726.982 872.059 726.835 872.813 726.369C873.567 725.903 874.105 725.156 874.308 724.294C874.512 723.431 874.364 722.522 873.898 721.768ZM865.78 726.786C865.549 726.413 865.247 726.089 864.891 725.832C864.535 725.576 864.132 725.392 863.705 725.291C863.278 725.19 862.835 725.174 862.402 725.244C861.969 725.315 861.554 725.47 861.18 725.701C860.807 725.931 860.483 726.233 860.226 726.589C859.97 726.946 859.786 727.349 859.685 727.776C859.584 728.203 859.569 728.646 859.639 729.079C859.709 729.512 859.864 729.928 860.095 730.301C860.561 731.055 861.307 731.593 862.17 731.797C863.032 732 863.94 731.853 864.694 731.387C865.448 730.921 865.986 730.174 866.189 729.312C866.393 728.449 866.246 727.541 865.78 726.786ZM857.661 731.811C857.435 731.428 857.135 731.095 856.779 730.83C856.423 730.565 856.017 730.374 855.586 730.267C855.155 730.161 854.707 730.141 854.268 730.21C853.83 730.279 853.409 730.434 853.031 730.667C852.653 730.901 852.326 731.207 852.068 731.568C851.809 731.929 851.626 732.339 851.528 732.772C851.429 733.205 851.418 733.653 851.495 734.091C851.572 734.528 851.736 734.946 851.976 735.319C852.202 735.701 852.502 736.035 852.858 736.3C853.214 736.565 853.62 736.756 854.051 736.862C854.482 736.969 854.93 736.988 855.369 736.92C855.807 736.851 856.228 736.695 856.606 736.462C856.984 736.229 857.311 735.923 857.569 735.561C857.828 735.2 858.011 734.791 858.109 734.358C858.208 733.925 858.219 733.476 858.142 733.039C858.065 732.602 857.901 732.184 857.661 731.811ZM893.238 698.587C893.007 698.214 892.705 697.89 892.349 697.633C891.993 697.376 891.59 697.192 891.163 697.092C890.736 696.991 890.293 696.975 889.86 697.045C889.427 697.116 889.012 697.271 888.639 697.501C888.265 697.732 887.941 698.034 887.685 698.39C887.428 698.746 887.244 699.15 887.143 699.577C887.042 700.004 887.027 700.447 887.097 700.88C887.167 701.313 887.322 701.728 887.553 702.102C887.784 702.475 888.086 702.799 888.442 703.056C888.798 703.313 889.201 703.497 889.628 703.598C890.055 703.698 890.498 703.714 890.931 703.644C891.364 703.574 891.779 703.419 892.152 703.188C892.525 702.957 892.85 702.655 893.106 702.299C893.363 701.943 893.547 701.54 893.648 701.113C893.748 700.685 893.764 700.242 893.694 699.809C893.624 699.376 893.469 698.961 893.238 698.587ZM885.119 703.611C884.893 703.229 884.593 702.896 884.237 702.631C883.881 702.366 883.475 702.174 883.044 702.068C882.613 701.962 882.165 701.942 881.727 702.011C881.288 702.08 880.867 702.235 880.489 702.468C880.112 702.702 879.784 703.008 879.526 703.369C879.268 703.73 879.084 704.14 878.986 704.573C878.888 705.006 878.877 705.454 878.954 705.891C879.031 706.329 879.194 706.746 879.434 707.12C879.66 707.502 879.96 707.836 880.316 708.101C880.673 708.366 881.078 708.557 881.509 708.663C881.94 708.77 882.388 708.789 882.827 708.721C883.265 708.652 883.686 708.496 884.064 708.263C884.442 708.03 884.769 707.724 885.028 707.362C885.286 707.001 885.469 706.592 885.568 706.159C885.666 705.726 885.677 705.277 885.6 704.84C885.523 704.403 885.359 703.985 885.119 703.611ZM877 708.63C876.77 708.256 876.468 707.932 876.112 707.675C875.756 707.419 875.353 707.235 874.926 707.134C874.499 707.033 874.056 707.017 873.623 707.088C873.189 707.158 872.774 707.313 872.401 707.544C872.028 707.774 871.704 708.076 871.447 708.432C871.191 708.789 871.007 709.192 870.906 709.619C870.805 710.046 870.789 710.489 870.86 710.922C870.93 711.355 871.085 711.771 871.315 712.144C871.546 712.517 871.848 712.842 872.204 713.098C872.56 713.355 872.963 713.539 873.39 713.64C873.817 713.741 874.26 713.756 874.693 713.686C875.126 713.616 875.541 713.461 875.915 713.23C876.288 712.999 876.612 712.697 876.869 712.341C877.125 711.985 877.309 711.582 877.41 711.155C877.511 710.727 877.527 710.285 877.456 709.851C877.386 709.418 877.231 709.003 877 708.63ZM868.882 713.648C868.651 713.274 868.349 712.95 867.993 712.693C867.637 712.437 867.234 712.253 866.807 712.152C866.38 712.051 865.937 712.035 865.504 712.106C865.071 712.176 864.656 712.331 864.282 712.562C863.909 712.792 863.585 713.094 863.328 713.451C863.072 713.807 862.888 714.21 862.787 714.637C862.686 715.064 862.671 715.507 862.741 715.94C862.811 716.374 862.966 716.789 863.197 717.162C863.427 717.535 863.729 717.86 864.085 718.116C864.441 718.373 864.844 718.557 865.271 718.658C865.699 718.759 866.141 718.774 866.574 718.704C867.008 718.634 867.423 718.479 867.796 718.248C868.169 718.017 868.493 717.715 868.75 717.359C869.007 717.003 869.191 716.6 869.291 716.173C869.392 715.746 869.408 715.303 869.338 714.869C869.267 714.436 869.112 714.021 868.882 713.648Z" fill="#FF73AF" fill-opacity="0.933333"/>
<path d="M1362.46 603.184L1370.01 602.027L1372.79 609.145L1380.34 607.988L1383.13 615.106L1390.68 613.948L1393.47 621.061M1360.07 607.319L1367.63 606.162L1370.41 613.28L1377.96 612.123L1380.75 619.241L1388.3 618.083L1391.08 625.196M1357.69 611.454L1365.25 610.297L1368.03 617.415L1375.58 616.258L1378.36 623.376L1385.92 622.218L1388.7 629.337" stroke="#FF73AF" stroke-opacity="0.933333" stroke-width="2.2"/>
<path d="M1182.28 1001.52C1210.39 1001.52 1233.18 978.728 1233.18 950.607C1233.18 922.487 1210.39 899.69 1182.28 899.69C1154.17 899.69 1131.38 922.487 1131.38 950.607C1131.38 978.728 1154.17 1001.52 1182.28 1001.52Z" fill="#FF73AF" fill-opacity="0.933333"/>
</g>
</g>
<mask id="mask1_26_4" style="mask-type:luminance" maskUnits="userSpaceOnUse" x="-18" y="-296" width="1440" height="1024">
<path d="M1422 -296H-18V728H1422V-296Z" fill="white"/>
</mask>
<g mask="url(#mask1_26_4)">
<path d="M790.96 238.04C790.752 237.32 790.402 236.649 789.93 236.067C789.458 235.485 788.875 235.004 788.214 234.651C787.552 234.299 786.827 234.083 786.081 234.016C785.335 233.949 784.583 234.032 783.869 234.261C783.156 234.49 782.496 234.86 781.928 235.349C781.36 235.837 780.895 236.435 780.563 237.106C780.23 237.777 780.035 238.509 779.99 239.256C779.945 240.004 780.05 240.754 780.3 241.46C780.508 242.18 780.858 242.851 781.33 243.433C781.802 244.015 782.385 244.496 783.047 244.849C783.708 245.201 784.433 245.417 785.179 245.484C785.926 245.551 786.678 245.468 787.391 245.239C788.104 245.01 788.765 244.64 789.333 244.151C789.901 243.663 790.365 243.065 790.697 242.394C791.03 241.723 791.225 240.991 791.27 240.244C791.315 239.496 791.21 238.746 790.96 238.04ZM775.73 242.93C775.515 242.218 775.16 241.556 774.686 240.983C774.212 240.409 773.629 239.936 772.97 239.591C772.312 239.246 771.591 239.035 770.85 238.971C770.109 238.907 769.362 238.992 768.654 239.22C767.946 239.447 767.291 239.814 766.726 240.298C766.161 240.782 765.699 241.373 765.365 242.038C765.031 242.703 764.833 243.427 764.783 244.169C764.732 244.911 764.83 245.656 765.07 246.36C765.285 247.072 765.64 247.734 766.114 248.307C766.588 248.88 767.171 249.354 767.83 249.699C768.488 250.045 769.209 250.255 769.95 250.319C770.691 250.383 771.438 250.298 772.146 250.07C772.854 249.843 773.509 249.476 774.074 248.992C774.639 248.508 775.102 247.917 775.435 247.252C775.769 246.587 775.967 245.863 776.018 245.121C776.068 244.379 775.97 243.634 775.73 242.93ZM760.5 247.82C760.045 246.405 759.047 245.229 757.725 244.55C756.403 243.871 754.865 243.745 753.45 244.2C752.035 244.655 750.859 245.653 750.18 246.975C749.501 248.297 749.375 249.835 749.83 251.25C750.055 251.951 750.416 252.6 750.892 253.161C751.369 253.722 751.951 254.184 752.605 254.52C753.26 254.856 753.974 255.06 754.708 255.12C755.441 255.18 756.179 255.095 756.88 254.87C757.581 254.645 758.23 254.284 758.791 253.808C759.352 253.331 759.814 252.749 760.15 252.095C760.486 251.44 760.69 250.726 760.75 249.992C760.81 249.259 760.725 248.521 760.5 247.82ZM745.26 252.72C745.052 252 744.702 251.329 744.23 250.747C743.758 250.165 743.175 249.684 742.514 249.331C741.852 248.979 741.127 248.763 740.381 248.696C739.635 248.629 738.883 248.712 738.169 248.941C737.456 249.17 736.796 249.54 736.228 250.028C735.66 250.517 735.196 251.115 734.863 251.786C734.53 252.457 734.335 253.189 734.29 253.936C734.245 254.684 734.35 255.434 734.6 256.14C734.808 256.86 735.158 257.531 735.63 258.113C736.102 258.695 736.685 259.176 737.347 259.528C738.008 259.881 738.733 260.097 739.479 260.164C740.226 260.231 740.978 260.148 741.691 259.919C742.404 259.69 743.065 259.32 743.633 258.831C744.201 258.343 744.665 257.745 744.998 257.074C745.33 256.403 745.525 255.671 745.57 254.924C745.615 254.176 745.51 253.426 745.26 252.72Z" stroke="#FF73AF" stroke-opacity="0.933333" stroke-width="2.76" stroke-dasharray="4 4"/>
<path d="M-17.6799 633.893C51.462 633.893 107.513 577.842 107.513 508.7C107.513 439.558 51.462 383.507 -17.6799 383.507C-86.8219 383.507 -142.873 439.558 -142.873 508.7C-142.873 577.842 -86.8219 633.893 -17.6799 633.893Z" stroke="#FF73AF" stroke-opacity="0.933333" stroke-width="2.84"/>
</g>
<g clip-path="url(#clip1_26_4)">
<mask id="mask2_26_4" style="mask-type:luminance" maskUnits="userSpaceOnUse" x="0" y="1" width="1440" height="1024">
<path d="M1440 1H0V1025H1440V1Z" fill="white"/>
</mask>
<g mask="url(#mask2_26_4)">
<path d="M1148.33 171.667C1195.46 171.667 1233.67 133.462 1233.67 86.3333C1233.67 39.205 1195.46 1 1148.33 1C1101.2 1 1063 39.205 1063 86.3333C1063 133.462 1101.2 171.667 1148.33 171.667Z" fill="white" fill-opacity="0.5"/>
<path d="M194.07 850.8C194.74 850.477 195.339 850.024 195.831 849.467C196.324 848.91 196.701 848.26 196.94 847.556C197.179 846.852 197.276 846.107 197.224 845.366C197.172 844.624 196.973 843.9 196.638 843.236C196.304 842.571 195.84 841.981 195.274 841.498C194.709 841.015 194.053 840.649 193.345 840.422C192.636 840.196 191.89 840.112 191.149 840.177C190.409 840.242 189.688 840.454 189.03 840.8C188.36 841.123 187.761 841.576 187.269 842.133C186.776 842.69 186.399 843.34 186.16 844.044C185.921 844.748 185.824 845.493 185.876 846.235C185.928 846.976 186.127 847.7 186.462 848.365C186.796 849.029 187.26 849.619 187.825 850.102C188.391 850.585 189.047 850.951 189.755 851.177C190.463 851.404 191.21 851.488 191.951 851.423C192.691 851.358 193.412 851.146 194.07 850.8ZM186.87 836.51C187.54 836.187 188.139 835.734 188.631 835.177C189.124 834.62 189.501 833.97 189.74 833.266C189.979 832.562 190.076 831.817 190.024 831.076C189.972 830.334 189.773 829.61 189.438 828.946C189.104 828.281 188.64 827.691 188.074 827.208C187.509 826.725 186.853 826.359 186.145 826.133C185.436 825.906 184.69 825.822 183.949 825.887C183.209 825.952 182.488 826.164 181.83 826.51C181.16 826.833 180.561 827.286 180.069 827.843C179.576 828.4 179.199 829.05 178.96 829.754C178.721 830.458 178.624 831.203 178.676 831.944C178.728 832.686 178.927 833.41 179.262 834.074C179.596 834.739 180.06 835.329 180.625 835.812C181.191 836.295 181.847 836.661 182.555 836.888C183.263 837.114 184.01 837.198 184.751 837.133C185.491 837.068 186.212 836.856 186.87 836.51ZM179.67 822.22C180.327 821.888 180.911 821.431 181.391 820.873C181.871 820.315 182.236 819.669 182.466 818.97C182.696 818.271 182.786 817.534 182.731 816.801C182.676 816.067 182.477 815.352 182.145 814.695C181.813 814.038 181.356 813.454 180.798 812.974C180.24 812.494 179.594 812.129 178.895 811.899C178.196 811.669 177.459 811.579 176.726 811.634C175.992 811.689 175.277 811.888 174.62 812.22C173.294 812.89 172.288 814.059 171.824 815.47C171.36 816.881 171.475 818.419 172.145 819.745C172.815 821.071 173.984 822.077 175.395 822.541C176.806 823.005 178.344 822.89 179.67 822.22ZM172.46 807.94C173.13 807.617 173.729 807.164 174.221 806.607C174.714 806.05 175.091 805.4 175.33 804.696C175.569 803.992 175.666 803.247 175.614 802.506C175.562 801.764 175.363 801.04 175.028 800.375C174.694 799.711 174.23 799.121 173.664 798.638C173.099 798.155 172.443 797.789 171.735 797.563C171.026 797.336 170.28 797.252 169.539 797.317C168.799 797.382 168.078 797.594 167.42 797.94C166.75 798.263 166.151 798.716 165.659 799.273C165.166 799.83 164.789 800.48 164.55 801.184C164.311 801.888 164.214 802.633 164.266 803.375C164.318 804.116 164.517 804.84 164.852 805.504C165.186 806.169 165.65 806.759 166.215 807.242C166.781 807.725 167.437 808.091 168.145 808.318C168.853 808.544 169.6 808.628 170.341 808.563C171.081 808.498 171.802 808.286 172.46 807.94Z" fill="#000614" fill-opacity="0.5"/>
<path d="M591.43 959.41L603.71 955.75L609.97 966.92L622.24 963.27L628.5 974.44L640.78 970.78L647.04 981.95M588.43 966.82L600.7 963.16L606.96 974.34L619.24 970.68L625.5 981.85L637.77 978.19L644.03 989.37M585.42 974.23L597.7 970.58L603.96 981.75L616.23 978.09L622.49 989.26L634.76 985.61L641.03 996.78" stroke="white" stroke-opacity="0.5" stroke-width="2.05" stroke-dasharray="3 3"/>
<path d="M584.44 533.46C584.42 532.725 584.256 532 583.956 531.328C583.657 530.656 583.228 530.05 582.694 529.544C582.16 529.038 581.531 528.642 580.844 528.379C580.157 528.116 579.425 527.99 578.69 528.01C577.955 528.03 577.23 528.194 576.558 528.494C575.886 528.793 575.28 529.222 574.774 529.756C574.268 530.29 573.872 530.919 573.609 531.606C573.346 532.292 573.22 533.025 573.24 533.76C573.26 534.495 573.424 535.22 573.724 535.892C574.023 536.563 574.452 537.17 574.986 537.676C575.52 538.182 576.149 538.578 576.836 538.841C577.522 539.104 578.255 539.23 578.99 539.21C579.725 539.19 580.45 539.026 581.122 538.726C581.793 538.427 582.4 537.998 582.906 537.464C583.412 536.93 583.808 536.301 584.071 535.614C584.334 534.927 584.46 534.195 584.44 533.46ZM568.44 533.88C568.444 533.129 568.298 532.385 568.009 531.692C567.72 530.999 567.295 530.371 566.758 529.846C566.222 529.321 565.585 528.909 564.886 528.634C564.187 528.36 563.44 528.229 562.69 528.249C561.939 528.269 561.201 528.44 560.517 528.751C559.834 529.063 559.221 529.508 558.713 530.062C558.206 530.615 557.815 531.265 557.563 531.972C557.312 532.68 557.205 533.431 557.25 534.18C557.246 534.931 557.392 535.675 557.681 536.368C557.97 537.061 558.395 537.689 558.932 538.214C559.468 538.739 560.105 539.151 560.804 539.426C561.502 539.7 562.249 539.831 563 539.811C563.75 539.791 564.489 539.62 565.173 539.309C565.856 538.997 566.469 538.552 566.977 537.998C567.484 537.445 567.875 536.795 568.127 536.088C568.378 535.38 568.485 534.629 568.44 533.88ZM552.45 534.3C552.431 533.565 552.267 532.84 551.968 532.168C551.669 531.496 551.241 530.889 550.707 530.383C550.174 529.876 549.546 529.48 548.859 529.216C548.172 528.952 547.44 528.826 546.705 528.845C545.97 528.864 545.245 529.028 544.573 529.327C543.901 529.626 543.294 530.054 542.788 530.588C542.281 531.121 541.885 531.749 541.621 532.436C541.357 533.123 541.231 533.855 541.25 534.59C541.269 535.325 541.433 536.05 541.732 536.722C542.031 537.394 542.459 538.001 542.993 538.507C543.526 539.014 544.154 539.41 544.841 539.674C545.528 539.938 546.26 540.064 546.995 540.045C547.73 540.026 548.455 539.862 549.127 539.563C549.799 539.264 550.406 538.836 550.912 538.302C551.419 537.769 551.815 537.141 552.079 536.454C552.343 535.767 552.469 535.035 552.45 534.3ZM536.45 534.72C536.456 533.969 536.31 533.224 536.022 532.531C535.734 531.837 535.309 531.208 534.773 530.682C534.237 530.156 533.601 529.743 532.902 529.468C532.203 529.192 531.456 529.061 530.705 529.08C529.954 529.099 529.215 529.27 528.531 529.581C527.847 529.892 527.233 530.337 526.725 530.891C526.217 531.444 525.826 532.094 525.574 532.801C525.322 533.509 525.215 534.26 525.26 535.01C525.254 535.761 525.4 536.506 525.688 537.199C525.976 537.893 526.401 538.522 526.937 539.048C527.473 539.574 528.109 539.987 528.808 540.262C529.507 540.538 530.254 540.669 531.005 540.65C531.756 540.631 532.495 540.46 533.179 540.149C533.863 539.838 534.477 539.393 534.985 538.839C535.493 538.286 535.884 537.636 536.136 536.929C536.388 536.221 536.494 535.47 536.45 534.72ZM616.01 516.63C615.99 515.895 615.826 515.17 615.526 514.498C615.227 513.827 614.798 513.22 614.264 512.714C613.73 512.208 613.101 511.812 612.414 511.549C611.727 511.286 610.995 511.16 610.26 511.18C609.525 511.2 608.8 511.364 608.128 511.664C607.456 511.963 606.85 512.392 606.344 512.926C605.838 513.46 605.442 514.089 605.179 514.776C604.916 515.463 604.79 516.195 604.81 516.93C604.85 518.415 605.478 519.824 606.556 520.846C607.635 521.868 609.075 522.42 610.56 522.38C612.045 522.34 613.454 521.712 614.476 520.634C615.498 519.555 616.05 518.115 616.01 516.63ZM600.01 517.05C600.016 516.299 599.87 515.554 599.582 514.861C599.294 514.167 598.869 513.538 598.333 513.012C597.797 512.486 597.161 512.073 596.462 511.798C595.763 511.522 595.016 511.391 594.265 511.41C593.514 511.429 592.775 511.6 592.091 511.911C591.407 512.222 590.793 512.667 590.285 513.221C589.777 513.774 589.386 514.424 589.134 515.131C588.882 515.839 588.775 516.59 588.82 517.34C588.814 518.091 588.96 518.836 589.248 519.529C589.536 520.223 589.961 520.852 590.497 521.378C591.033 521.904 591.669 522.317 592.368 522.592C593.067 522.868 593.814 522.999 594.565 522.98C595.316 522.961 596.055 522.79 596.739 522.479C597.423 522.168 598.037 521.723 598.545 521.169C599.053 520.616 599.444 519.966 599.696 519.259C599.948 518.551 600.054 517.8 600.01 517.05ZM584.02 517.47C584.001 516.735 583.837 516.01 583.538 515.338C583.239 514.666 582.811 514.059 582.277 513.553C581.744 513.046 581.116 512.65 580.429 512.386C579.742 512.122 579.01 511.996 578.275 512.015C577.54 512.034 576.815 512.198 576.143 512.497C575.471 512.796 574.864 513.224 574.358 513.758C573.851 514.291 573.455 514.919 573.191 515.606C572.927 516.293 572.801 517.025 572.82 517.76C572.839 518.495 573.003 519.22 573.302 519.892C573.601 520.564 574.029 521.171 574.563 521.677C575.096 522.184 575.724 522.58 576.411 522.844C577.098 523.108 577.83 523.234 578.565 523.215C579.3 523.196 580.025 523.032 580.697 522.733C581.369 522.434 581.976 522.006 582.482 521.472C582.989 520.939 583.385 520.311 583.649 519.624C583.913 518.937 584.039 518.205 584.02 517.47ZM568.02 517.89C568.026 517.139 567.88 516.394 567.592 515.701C567.304 515.007 566.879 514.378 566.343 513.852C565.807 513.326 565.171 512.913 564.472 512.638C563.773 512.362 563.026 512.231 562.275 512.25C561.524 512.269 560.785 512.44 560.101 512.751C559.417 513.062 558.803 513.507 558.295 514.061C557.787 514.614 557.396 515.264 557.144 515.971C556.892 516.679 556.785 517.43 556.83 518.18C556.824 518.931 556.97 519.676 557.258 520.369C557.546 521.063 557.971 521.692 558.507 522.218C559.043 522.744 559.679 523.157 560.378 523.432C561.077 523.708 561.824 523.839 562.575 523.82C563.326 523.801 564.065 523.63 564.749 523.319C565.433 523.008 566.047 522.563 566.555 522.009C567.063 521.456 567.454 520.806 567.706 520.099C567.958 519.391 568.064 518.64 568.02 517.89Z" stroke="white" stroke-width="1.5" stroke-dasharray="3 2"/>
</g>
</g>
</g>
<defs>
<filter id="filter0_d_26_4" x="-22" y="-94.5479" width="1466" height="1267.55" filterUnits="userSpaceOnUse" color-interpolation-filters="sRGB">
<feFlood flood-opacity="0" result="BackgroundImageFix"/>
<feColorMatrix in="SourceAlpha" type="matrix" values="0 0 0 0 0 0 0 0 0 0 0 0 0 0 0 0 0 0 127 0" result="hardAlpha"/>
<feOffset dy="4"/>
<feGaussianBlur stdDeviation="2"/>
<feComposite in2="hardAlpha" operator="out"/>
<feColorMatrix type="matrix" values="0 0 0 0 0 0 0 0 0 0 0 0 0 0 0 0 0 0 0.25 0"/>
<feBlend mode="normal" in2="BackgroundImageFix" result="effect1_dropShadow_26_4"/>
<feBlend mode="normal" in="SourceGraphic" in2="effect1_dropShadow_26_4" result="shape"/>
</filter>
<clipPath id="clip0_26_4">
<rect width="859" height="611" fill="white" transform="translate(563 554)"/>
</clipPath>
<clipPath id="clip1_26_4">
<rect width="1440" height="1024" fill="white" transform="translate(0 1)"/>
</clipPath>
</defs>
</svg>
