<svg width="1422" height="1024" viewBox="0 0 1422 1024" fill="none" xmlns="http://www.w3.org/2000/svg">
<g clip-path="url(#clip0_26_4)">
<mask id="mask0_26_4" style="mask-type:luminance" maskUnits="userSpaceOnUse" x="563" y="554" width="859" height="611">
<path d="M1422 554H563V1165H1422V554Z" fill="white"/>
</mask>
<g mask="url(#mask0_26_4)">
<path d="M981.053 923.715L974.676 919.502L977.384 912.354L971.013 908.141L973.721 900.999L967.35 896.787L970.059 889.638M985.592 922.247L979.215 918.034L981.93 910.892L975.553 906.679L978.267 899.531L971.89 895.319L974.604 888.176" stroke="black" stroke-width="1.23" stroke-dasharray="3 3"/>
<path d="M882.017 716.75C881.786 716.377 881.484 716.053 881.128 715.796C880.772 715.539 880.369 715.355 879.942 715.255C879.515 715.154 879.073 715.138 878.639 715.208C878.206 715.279 877.791 715.434 877.418 715.664C877.045 715.895 876.72 716.197 876.464 716.553C876.207 716.909 876.023 717.312 875.922 717.74C875.822 718.167 875.806 718.61 875.876 719.043C875.947 719.476 876.101 719.891 876.332 720.265C876.563 720.638 876.865 720.962 877.221 721.219C877.577 721.476 877.98 721.66 878.407 721.761C878.834 721.861 879.277 721.877 879.71 721.807C880.143 721.736 880.558 721.582 880.931 721.351C881.305 721.12 881.629 720.818 881.885 720.462C882.142 720.106 882.326 719.703 882.427 719.275C882.528 718.848 882.543 718.405 882.473 717.972C882.403 717.539 882.248 717.124 882.017 716.75ZM873.898 721.768C873.668 721.395 873.366 721.071 873.01 720.814C872.654 720.557 872.251 720.374 871.824 720.273C871.396 720.172 870.954 720.156 870.521 720.226C870.087 720.297 869.672 720.452 869.299 720.682C868.926 720.913 868.602 721.215 868.345 721.571C868.089 721.927 867.905 722.331 867.804 722.758C867.703 723.185 867.687 723.628 867.758 724.061C867.828 724.494 867.983 724.909 868.213 725.283C868.679 726.037 869.426 726.575 870.288 726.779C871.151 726.982 872.059 726.835 872.813 726.369C873.567 725.903 874.104 725.156 874.308 724.294C874.512 723.431 874.364 722.522 873.898 721.768ZM865.78 726.786C865.549 726.413 865.247 726.089 864.891 725.832C864.535 725.576 864.132 725.392 863.705 725.291C863.278 725.19 862.835 725.174 862.402 725.244C861.969 725.315 861.554 725.47 861.18 725.701C860.807 725.931 860.483 726.233 860.226 726.589C859.97 726.946 859.786 727.349 859.685 727.776C859.584 728.203 859.568 728.646 859.639 729.079C859.709 729.512 859.864 729.928 860.095 730.301C860.561 731.055 861.307 731.593 862.169 731.797C863.032 732 863.94 731.853 864.694 731.387C865.448 730.921 865.986 730.174 866.189 729.312C866.393 728.449 866.246 727.541 865.78 726.786ZM857.661 731.811C857.435 731.428 857.135 731.095 856.779 730.83C856.422 730.565 856.017 730.374 855.586 730.267C855.155 730.161 854.707 730.141 854.268 730.21C853.83 730.279 853.409 730.434 853.031 730.667C852.653 730.901 852.326 731.207 852.068 731.568C851.809 731.929 851.626 732.339 851.528 732.772C851.429 733.205 851.418 733.653 851.495 734.091C851.572 734.528 851.736 734.946 851.976 735.319C852.202 735.701 852.502 736.035 852.858 736.3C853.214 736.565 853.62 736.756 854.051 736.862C854.482 736.969 854.93 736.988 855.369 736.92C855.807 736.851 856.228 736.695 856.606 736.462C856.983 736.229 857.311 735.923 857.569 735.561C857.827 735.2 858.011 734.791 858.109 734.358C858.207 733.925 858.218 733.476 858.141 733.039C858.064 732.602 857.901 732.184 857.661 731.811ZM893.238 698.587C893.007 698.214 892.705 697.89 892.349 697.633C891.993 697.376 891.59 697.192 891.163 697.092C890.736 696.991 890.293 696.975 889.86 697.045C889.427 697.116 889.012 697.271 888.639 697.501C888.265 697.732 887.941 698.034 887.685 698.39C887.428 698.746 887.244 699.15 887.143 699.577C887.042 700.004 887.027 700.447 887.097 700.88C887.167 701.313 887.322 701.728 887.553 702.102C887.784 702.475 888.086 702.799 888.442 703.056C888.797 703.313 889.201 703.497 889.628 703.598C890.055 703.698 890.497 703.714 890.931 703.644C891.364 703.574 891.779 703.419 892.152 703.188C892.525 702.957 892.85 702.655 893.106 702.299C893.363 701.943 893.547 701.54 893.647 701.113C893.748 700.685 893.764 700.242 893.694 699.809C893.623 699.376 893.468 698.961 893.238 698.587ZM885.119 703.611C884.893 703.229 884.593 702.896 884.237 702.631C883.881 702.366 883.475 702.174 883.044 702.068C882.613 701.962 882.165 701.942 881.726 702.011C881.288 702.08 880.867 702.235 880.489 702.468C880.111 702.702 879.784 703.008 879.526 703.369C879.268 703.73 879.084 704.14 878.986 704.573C878.887 705.006 878.877 705.454 878.953 705.891C879.03 706.329 879.194 706.746 879.434 707.12C879.66 707.502 879.96 707.836 880.316 708.101C880.673 708.366 881.078 708.557 881.509 708.663C881.94 708.77 882.388 708.789 882.827 708.721C883.265 708.652 883.686 708.496 884.064 708.263C884.442 708.03 884.769 707.724 885.027 707.362C885.286 707.001 885.469 706.592 885.567 706.159C885.666 705.726 885.677 705.277 885.6 704.84C885.523 704.403 885.359 703.985 885.119 703.611ZM877 708.63C876.77 708.256 876.468 707.932 876.112 707.675C875.756 707.419 875.353 707.235 874.926 707.134C874.498 707.033 874.056 707.017 873.623 707.088C873.189 707.158 872.774 707.313 872.401 707.544C872.028 707.774 871.704 708.076 871.447 708.432C871.19 708.789 871.007 709.192 870.906 709.619C870.805 710.046 870.789 710.489 870.859 710.922C870.93 711.355 871.085 711.771 871.315 712.144C871.546 712.517 871.848 712.842 872.204 713.098C872.56 713.355 872.963 713.539 873.39 713.64C873.817 713.741 874.26 713.756 874.693 713.686C875.126 713.616 875.541 713.461 875.915 713.23C876.288 712.999 876.612 712.697 876.869 712.341C877.125 711.985 877.309 711.582 877.41 711.155C877.511 710.727 877.527 710.285 877.456 709.851C877.386 709.418 877.231 709.003 877 708.63ZM868.882 713.648C868.651 713.274 868.349 712.95 867.993 712.693C867.637 712.437 867.234 712.253 866.807 712.152C866.38 712.051 865.937 712.035 865.504 712.106C865.071 712.176 864.656 712.331 864.282 712.562C863.909 712.792 863.585 713.094 863.328 713.451C863.072 713.807 862.888 714.21 862.787 714.637C862.686 715.064 862.67 715.507 862.741 715.94C862.811 716.374 862.966 716.789 863.197 717.162C863.427 717.535 863.729 717.86 864.085 718.116C864.441 718.373 864.844 718.557 865.271 718.658C865.698 718.759 866.141 718.774 866.574 718.704C867.008 718.634 867.423 718.479 867.796 718.248C868.169 718.017 868.493 717.715 868.75 717.359C869.006 717.003 869.19 716.6 869.291 716.173C869.392 715.746 869.408 715.303 869.337 714.869C869.267 714.436 869.112 714.021 868.882 713.648Z" fill="#8A003C" fill-opacity="0.933333"/>
<path d="M1362.46 603.184L1370.01 602.027L1372.79 609.145L1380.34 607.988L1383.13 615.106L1390.68 613.948L1393.47 621.061M1360.07 607.319L1367.63 606.162L1370.41 613.28L1377.96 612.123L1380.75 619.241L1388.3 618.083L1391.08 625.196M1357.69 611.454L1365.25 610.297L1368.03 617.415L1375.58 616.258L1378.36 623.376L1385.92 622.218L1388.7 629.337" stroke="#8A003C" stroke-opacity="0.933333" stroke-width="2.2"/>
<path d="M1182.28 1001.52C1210.39 1001.52 1233.18 978.728 1233.18 950.607C1233.18 922.487 1210.39 899.69 1182.28 899.69C1154.17 899.69 1131.38 922.487 1131.38 950.607C1131.38 978.728 1154.17 1001.52 1182.28 1001.52Z" fill="#8A003C" fill-opacity="0.933333"/>
</g>
</g>
<mask id="mask1_26_4" style="mask-type:luminance" maskUnits="userSpaceOnUse" x="-18" y="-296" width="1440" height="1024">
<path d="M1422 -296H-18V728H1422V-296Z" fill="white"/>
</mask>
<g mask="url(#mask1_26_4)">
<path d="M790.96 238.04C790.752 237.32 790.402 236.649 789.93 236.067C789.458 235.485 788.875 235.004 788.213 234.651C787.552 234.299 786.827 234.083 786.081 234.016C785.335 233.949 784.583 234.032 783.869 234.261C783.156 234.49 782.495 234.86 781.928 235.349C781.36 235.837 780.895 236.435 780.563 237.106C780.23 237.777 780.035 238.509 779.99 239.256C779.945 240.004 780.05 240.754 780.3 241.46C780.508 242.18 780.858 242.851 781.33 243.433C781.802 244.015 782.385 244.496 783.047 244.849C783.708 245.201 784.433 245.417 785.179 245.484C785.925 245.551 786.678 245.468 787.391 245.239C788.104 245.01 788.765 244.64 789.333 244.151C789.9 243.663 790.365 243.065 790.697 242.394C791.03 241.723 791.225 240.991 791.27 240.244C791.315 239.496 791.21 238.746 790.96 238.04ZM775.73 242.93C775.515 242.218 775.16 241.556 774.686 240.983C774.212 240.409 773.629 239.936 772.97 239.591C772.312 239.246 771.591 239.035 770.85 238.971C770.109 238.907 769.362 238.992 768.654 239.22C767.946 239.447 767.291 239.814 766.726 240.298C766.161 240.782 765.698 241.373 765.365 242.038C765.031 242.703 764.833 243.427 764.783 244.169C764.732 244.911 764.83 245.656 765.07 246.36C765.285 247.072 765.64 247.734 766.114 248.307C766.588 248.88 767.171 249.354 767.83 249.699C768.488 250.045 769.209 250.255 769.95 250.319C770.691 250.383 771.438 250.298 772.146 250.07C772.854 249.843 773.509 249.476 774.074 248.992C774.639 248.508 775.102 247.917 775.435 247.252C775.769 246.587 775.967 245.863 776.017 245.121C776.068 244.379 775.97 243.634 775.73 242.93ZM760.5 247.82C760.045 246.405 759.047 245.229 757.725 244.55C756.403 243.871 754.865 243.745 753.45 244.2C752.035 244.655 750.859 245.653 750.18 246.975C749.501 248.297 749.375 249.835 749.83 251.25C750.055 251.951 750.416 252.6 750.892 253.161C751.369 253.722 751.951 254.184 752.605 254.52C753.26 254.856 753.974 255.06 754.708 255.12C755.441 255.18 756.179 255.095 756.88 254.87C757.581 254.645 758.23 254.284 758.791 253.808C759.352 253.331 759.814 252.749 760.15 252.095C760.486 251.44 760.69 250.726 760.75 249.992C760.81 249.259 760.725 248.521 760.5 247.82ZM745.26 252.72C745.052 252 744.702 251.329 744.23 250.747C743.758 250.165 743.175 249.684 742.513 249.331C741.852 248.979 741.127 248.763 740.381 248.696C739.635 248.629 738.883 248.712 738.169 248.941C737.456 249.17 736.795 249.54 736.228 250.028C735.66 250.517 735.195 251.115 734.863 251.786C734.53 252.457 734.335 253.189 734.29 253.936C734.245 254.684 734.35 255.434 734.6 256.14C734.808 256.86 735.158 257.531 735.63 258.113C736.102 258.695 736.685 259.176 737.347 259.528C738.008 259.881 738.733 260.097 739.479 260.164C740.225 260.231 740.978 260.148 741.691 259.919C742.404 259.69 743.065 259.32 743.633 258.831C744.2 258.343 744.665 257.745 744.997 257.074C745.33 256.403 745.525 255.671 745.57 254.924C745.615 254.176 745.51 253.426 745.26 252.72Z" stroke="#8A003C" stroke-opacity="0.933333" stroke-width="2.76" stroke-dasharray="4 4"/>
<path d="M-17.68 633.893C51.462 633.893 107.513 577.842 107.513 508.7C107.513 439.558 51.462 383.507 -17.68 383.507C-86.822 383.507 -142.873 439.558 -142.873 508.7C-142.873 577.842 -86.822 633.893 -17.68 633.893Z" stroke="#8A003C" stroke-opacity="0.933333" stroke-width="2.84"/>
</g>
<g clip-path="url(#clip1_26_4)">
<mask id="mask2_26_4" style="mask-type:luminance" maskUnits="userSpaceOnUse" x="-106" y="0" width="1440" height="1024">
<path d="M1334 0H-106V1024H1334V0Z" fill="white"/>
</mask>
<g mask="url(#mask2_26_4)">
<path d="M1040.85 108.753C1087.98 108.753 1126.18 70.5483 1126.18 23.42C1126.18 -23.7083 1087.98 -61.9133 1040.85 -61.9133C993.722 -61.9133 955.517 -23.7083 955.517 23.42C955.517 70.5483 993.722 108.753 1040.85 108.753Z" fill="black"/>
<path d="M88.07 849.8C88.7398 849.477 89.3386 849.024 89.8314 848.467C90.3242 847.91 90.7011 847.26 90.9402 846.556C91.1793 845.852 91.2757 845.107 91.2239 844.366C91.172 843.624 90.973 842.9 90.6383 842.236C90.3036 841.571 89.84 840.981 89.2745 840.498C88.709 840.015 88.053 839.649 87.3448 839.422C86.6365 839.196 85.8902 839.112 85.1494 839.177C84.4086 839.242 83.6881 839.454 83.03 839.8C82.3602 840.123 81.7614 840.576 81.2686 841.133C80.7758 841.69 80.3989 842.34 80.1598 843.044C79.9207 843.748 79.8243 844.493 79.8761 845.235C79.928 845.976 80.1271 846.7 80.4617 847.365C80.7964 848.029 81.26 848.619 81.8255 849.102C82.391 849.585 83.047 849.951 83.7552 850.177C84.4634 850.404 85.2098 850.488 85.9506 850.423C86.6914 850.358 87.4119 850.146 88.07 849.8ZM80.87 835.51C81.5398 835.187 82.1386 834.734 82.6314 834.177C83.1242 833.62 83.5011 832.97 83.7402 832.266C83.9793 831.562 84.0757 830.817 84.0239 830.076C83.972 829.334 83.773 828.61 83.4383 827.946C83.1036 827.281 82.64 826.691 82.0745 826.208C81.509 825.725 80.853 825.359 80.1448 825.133C79.4365 824.906 78.6902 824.822 77.9494 824.887C77.2086 824.952 76.4881 825.164 75.83 825.51C75.1602 825.833 74.5614 826.286 74.0686 826.843C73.5758 827.4 73.1989 828.05 72.9598 828.754C72.7207 829.458 72.6243 830.203 72.6761 830.944C72.728 831.686 72.927 832.41 73.2617 833.074C73.5964 833.739 74.06 834.329 74.6255 834.812C75.191 835.295 75.847 835.661 76.5552 835.888C77.2634 836.114 78.0098 836.198 78.7506 836.133C79.4914 836.068 80.2119 835.856 80.87 835.51ZM73.67 821.22C74.3266 820.888 74.9115 820.431 75.3912 819.873C75.871 819.315 76.2361 818.669 76.466 817.97C76.6958 817.271 76.7857 816.534 76.7307 815.801C76.6756 815.067 76.4766 814.352 76.145 813.695C75.8134 813.038 75.3557 812.454 74.7981 811.974C74.2405 811.494 73.5939 811.129 72.8951 810.899C72.1963 810.669 71.4591 810.579 70.7256 810.634C69.9921 810.689 69.2766 810.888 68.62 811.22C67.2939 811.89 66.2882 813.059 65.824 814.47C65.3599 815.881 65.4753 817.419 66.145 818.745C66.8147 820.071 67.9837 821.077 69.3949 821.541C70.8061 822.005 72.3439 821.89 73.67 821.22ZM66.46 806.94C67.1298 806.617 67.7286 806.164 68.2214 805.607C68.7142 805.05 69.0911 804.4 69.3302 803.696C69.5693 802.992 69.6657 802.247 69.6139 801.506C69.562 800.764 69.363 800.04 69.0283 799.375C68.6936 798.711 68.23 798.121 67.6645 797.638C67.099 797.155 66.443 796.789 65.7348 796.563C65.0265 796.336 64.2802 796.252 63.5394 796.317C62.7986 796.382 62.0781 796.594 61.42 796.94C60.7502 797.263 60.1514 797.716 59.6586 798.273C59.1658 798.83 58.7889 799.48 58.5498 800.184C58.3107 800.888 58.2143 801.633 58.2661 802.375C58.318 803.116 58.5171 803.84 58.8517 804.504C59.1864 805.169 59.65 805.759 60.2155 806.242C60.781 806.725 61.437 807.091 62.1452 807.318C62.8534 807.544 63.5998 807.628 64.3406 807.563C65.0814 807.498 65.8019 807.286 66.46 806.94Z" fill="black"/>
<path d="M485.43 958.41L497.71 954.75L503.97 965.92L516.24 962.27L522.5 973.44L534.78 969.78L541.04 980.95M482.43 965.82L494.7 962.16L500.96 973.34L513.24 969.68L519.5 980.85L531.77 977.19L538.03 988.37M479.42 973.23L491.7 969.58L497.96 980.75L510.23 977.09L516.49 988.26L528.76 984.61L535.03 995.78" stroke="black" stroke-width="2.05" stroke-dasharray="3 3"/>
<path d="M478.44 532.46C478.42 531.725 478.256 531 477.956 530.328C477.657 529.656 477.228 529.05 476.694 528.544C476.16 528.038 475.531 527.642 474.844 527.379C474.158 527.116 473.425 526.99 472.69 527.01C471.955 527.03 471.23 527.194 470.558 527.494C469.887 527.793 469.28 528.222 468.774 528.756C468.268 529.29 467.872 529.919 467.609 530.606C467.346 531.292 467.22 532.025 467.24 532.76C467.26 533.495 467.424 534.22 467.724 534.892C468.023 535.563 468.452 536.17 468.986 536.676C469.52 537.182 470.149 537.578 470.836 537.841C471.523 538.104 472.255 538.23 472.99 538.21C473.725 538.19 474.45 538.026 475.122 537.726C475.794 537.427 476.4 536.998 476.906 536.464C477.412 535.93 477.808 535.301 478.071 534.614C478.334 533.927 478.46 533.195 478.44 532.46ZM462.44 532.88C462.444 532.129 462.298 531.385 462.009 530.692C461.72 529.999 461.295 529.371 460.758 528.846C460.222 528.321 459.585 527.909 458.886 527.634C458.188 527.36 457.441 527.229 456.69 527.249C455.94 527.269 455.201 527.44 454.518 527.751C453.834 528.063 453.221 528.508 452.713 529.062C452.206 529.615 451.815 530.265 451.563 530.972C451.312 531.68 451.205 532.431 451.25 533.18C451.246 533.931 451.392 534.675 451.681 535.368C451.97 536.061 452.395 536.689 452.932 537.214C453.468 537.739 454.105 538.151 454.804 538.426C455.503 538.7 456.25 538.831 457 538.811C457.751 538.791 458.489 538.62 459.173 538.309C459.856 537.997 460.469 537.552 460.977 536.998C461.484 536.445 461.875 535.795 462.127 535.088C462.378 534.38 462.485 533.629 462.44 532.88ZM446.45 533.3C446.431 532.565 446.267 531.84 445.968 531.168C445.669 530.496 445.241 529.889 444.707 529.383C444.174 528.876 443.546 528.48 442.859 528.216C442.172 527.952 441.44 527.826 440.705 527.845C439.97 527.864 439.245 528.028 438.573 528.327C437.901 528.626 437.294 529.054 436.788 529.588C436.281 530.121 435.885 530.749 435.621 531.436C435.357 532.123 435.231 532.855 435.25 533.59C435.269 534.325 435.433 535.05 435.732 535.722C436.031 536.394 436.459 537.001 436.993 537.507C437.526 538.014 438.154 538.41 438.841 538.674C439.528 538.938 440.26 539.064 440.995 539.045C441.73 539.026 442.455 538.862 443.127 538.563C443.799 538.264 444.406 537.836 444.912 537.302C445.419 536.769 445.815 536.141 446.079 535.454C446.343 534.767 446.469 534.035 446.45 533.3ZM430.45 533.72C430.456 532.969 430.31 532.224 430.022 531.531C429.734 530.837 429.309 530.208 428.773 529.682C428.237 529.156 427.601 528.743 426.902 528.468C426.203 528.192 425.456 528.061 424.705 528.08C423.954 528.099 423.215 528.27 422.531 528.581C421.848 528.892 421.233 529.337 420.725 529.891C420.217 530.444 419.826 531.094 419.574 531.801C419.322 532.509 419.216 533.26 419.26 534.01C419.254 534.761 419.4 535.506 419.688 536.199C419.976 536.893 420.401 537.522 420.937 538.048C421.473 538.574 422.109 538.987 422.808 539.262C423.507 539.538 424.254 539.669 425.005 539.65C425.756 539.631 426.495 539.46 427.179 539.149C427.863 538.838 428.477 538.393 428.985 537.839C429.493 537.286 429.884 536.636 430.136 535.929C430.388 535.221 430.495 534.47 430.45 533.72ZM510.01 515.63C509.99 514.895 509.826 514.17 509.526 513.498C509.227 512.827 508.798 512.22 508.264 511.714C507.73 511.208 507.101 510.812 506.414 510.549C505.728 510.286 504.995 510.16 504.26 510.18C503.525 510.2 502.8 510.364 502.128 510.664C501.457 510.963 500.85 511.392 500.344 511.926C499.838 512.46 499.442 513.089 499.179 513.776C498.916 514.463 498.79 515.195 498.81 515.93C498.85 517.415 499.478 518.824 500.556 519.846C501.635 520.868 503.075 521.42 504.56 521.38C506.045 521.34 507.454 520.712 508.476 519.634C509.498 518.555 510.05 517.115 510.01 515.63ZM494.01 516.05C494.016 515.299 493.87 514.554 493.582 513.861C493.294 513.167 492.869 512.538 492.333 512.012C491.797 511.486 491.161 511.073 490.462 510.798C489.763 510.522 489.016 510.391 488.265 510.41C487.514 510.429 486.775 510.6 486.091 510.911C485.408 511.222 484.793 511.667 484.285 512.221C483.777 512.774 483.386 513.424 483.134 514.131C482.882 514.839 482.776 515.59 482.82 516.34C482.814 517.091 482.96 517.836 483.248 518.529C483.536 519.223 483.961 519.852 484.497 520.378C485.033 520.904 485.669 521.317 486.368 521.592C487.067 521.868 487.814 521.999 488.565 521.98C489.316 521.961 490.055 521.79 490.739 521.479C491.423 521.168 492.037 520.723 492.545 520.169C493.053 519.616 493.444 518.966 493.696 518.259C493.948 517.551 494.055 516.8 494.01 516.05ZM478.02 516.47C478.001 515.735 477.837 515.01 477.538 514.338C477.239 513.666 476.811 513.059 476.277 512.553C475.744 512.046 475.116 511.65 474.429 511.386C473.742 511.122 473.01 510.996 472.275 511.015C471.54 511.034 470.815 511.198 470.143 511.497C469.471 511.796 468.864 512.224 468.358 512.758C467.851 513.291 467.455 513.919 467.191 514.606C466.927 515.293 466.801 516.025 466.82 516.76C466.839 517.495 467.003 518.22 467.302 518.892C467.601 519.564 468.029 520.171 468.563 520.677C469.096 521.184 469.724 521.58 470.411 521.844C471.098 522.108 471.83 522.234 472.565 522.215C473.3 522.196 474.025 522.032 474.697 521.733C475.369 521.434 475.976 521.006 476.482 520.472C476.989 519.939 477.385 519.311 477.649 518.624C477.913 517.937 478.039 517.205 478.02 516.47ZM462.02 516.89C462.026 516.139 461.88 515.394 461.592 514.701C461.304 514.007 460.879 513.378 460.343 512.852C459.807 512.326 459.171 511.913 458.472 511.638C457.773 511.362 457.026 511.231 456.275 511.25C455.524 511.269 454.785 511.44 454.101 511.751C453.418 512.062 452.803 512.507 452.295 513.061C451.787 513.614 451.396 514.264 451.144 514.971C450.892 515.679 450.786 516.43 450.83 517.18C450.824 517.931 450.97 518.676 451.258 519.369C451.546 520.063 451.971 520.692 452.507 521.218C453.043 521.744 453.679 522.157 454.378 522.432C455.077 522.708 455.824 522.839 456.575 522.82C457.326 522.801 458.065 522.63 458.749 522.319C459.433 522.008 460.047 521.563 460.555 521.009C461.063 520.456 461.454 519.806 461.706 519.099C461.958 518.391 462.065 517.64 462.02 516.89Z" stroke="black" stroke-width="1.5" stroke-dasharray="3 2"/>
</g>
</g>
<defs>
<clipPath id="clip0_26_4">
<rect width="859" height="611" fill="white" transform="translate(563 554)"/>
</clipPath>
<clipPath id="clip1_26_4">
<rect width="1440" height="1024" fill="white" transform="translate(-106)"/>
</clipPath>
</defs>
</svg>
